<?xml version="1.0" encoding="UTF-8" standalone="no"?><svg xmlns:svg="http://www.w3.org/2000/svg" xmlns="http://www.w3.org/2000/svg" xmlns:xlink="http://www.w3.org/1999/xlink" version="1.0" width="256px" height="256px" viewBox="0 0 128 128" xml:space="preserve"><rect x="0" y="0" width="100%" height="100%" fill="#FFFFFF" /><g><path d="M64 1.5a62.8 62.8 0 0 0-12.4 1.23l-.38-1.45a64.56 64.56 0 0 1 25.57 0l-.4 1.45A62.78 62.78 0 0 0 64 1.5zm0 3a59.78 59.78 0 0 1 11.62 1.14L71.34 21.6a43.43 43.43 0 0 0-14.67.04l-4.3-16A59.78 59.78 0 0 1 64.02 4.5z" fill="#337ab7"/><path d="M64 1.5a62.8 62.8 0 0 0-12.4 1.23l-.38-1.45a64.56 64.56 0 0 1 25.57 0l-.4 1.45A62.78 62.78 0 0 0 64 1.5zm0 3a59.78 59.78 0 0 1 11.62 1.14L71.34 21.6a43.43 43.43 0 0 0-14.67.04l-4.3-16A59.78 59.78 0 0 1 64.02 4.5z" fill="#f9fbfd" transform="rotate(30 64 64)"/><path d="M64 1.5a62.8 62.8 0 0 0-12.4 1.23l-.38-1.45a64.56 64.56 0 0 1 25.57 0l-.4 1.45A62.78 62.78 0 0 0 64 1.5zm0 3a59.78 59.78 0 0 1 11.62 1.14L71.34 21.6a43.43 43.43 0 0 0-14.67.04l-4.3-16A59.78 59.78 0 0 1 64.02 4.5z" fill="#edf3f9" transform="rotate(60 64 64)"/><path d="M64 1.5a62.8 62.8 0 0 0-12.4 1.23l-.38-1.45a64.56 64.56 0 0 1 25.57 0l-.4 1.45A62.78 62.78 0 0 0 64 1.5zm0 3a59.78 59.78 0 0 1 11.62 1.14L71.34 21.6a43.43 43.43 0 0 0-14.67.04l-4.3-16A59.78 59.78 0 0 1 64.02 4.5z" fill="#dde9f3" transform="rotate(90 64 64)"/><path d="M64 1.5a62.8 62.8 0 0 0-12.4 1.23l-.38-1.45a64.56 64.56 0 0 1 25.57 0l-.4 1.45A62.78 62.78 0 0 0 64 1.5zm0 3a59.78 59.78 0 0 1 11.62 1.14L71.34 21.6a43.43 43.43 0 0 0-14.67.04l-4.3-16A59.78 59.78 0 0 1 64.02 4.5z" fill="#cbdded" transform="rotate(120 64 64)"/><path d="M64 1.5a62.8 62.8 0 0 0-12.4 1.23l-.38-1.45a64.56 64.56 0 0 1 25.57 0l-.4 1.45A62.78 62.78 0 0 0 64 1.5zm0 3a59.78 59.78 0 0 1 11.62 1.14L71.34 21.6a43.43 43.43 0 0 0-14.67.04l-4.3-16A59.78 59.78 0 0 1 64.02 4.5z" fill="#b8d1e6" transform="rotate(150 64 64)"/><path d="M64 1.5a62.8 62.8 0 0 0-12.4 1.23l-.38-1.45a64.56 64.56 0 0 1 25.57 0l-.4 1.45A62.78 62.78 0 0 0 64 1.5zm0 3a59.78 59.78 0 0 1 11.62 1.14L71.34 21.6a43.43 43.43 0 0 0-14.67.04l-4.3-16A59.78 59.78 0 0 1 64.02 4.5z" fill="#a5c4df" transform="rotate(180 64 64)"/><path d="M64 1.5a62.8 62.8 0 0 0-12.4 1.23l-.38-1.45a64.56 64.56 0 0 1 25.57 0l-.4 1.45A62.78 62.78 0 0 0 64 1.5zm0 3a59.78 59.78 0 0 1 11.62 1.14L71.34 21.6a43.43 43.43 0 0 0-14.67.04l-4.3-16A59.78 59.78 0 0 1 64.02 4.5z" fill="#8fb6d7" transform="rotate(210 64 64)"/><path d="M64 1.5a62.8 62.8 0 0 0-12.4 1.23l-.38-1.45a64.56 64.56 0 0 1 25.57 0l-.4 1.45A62.78 62.78 0 0 0 64 1.5zm0 3a59.78 59.78 0 0 1 11.62 1.14L71.34 21.6a43.43 43.43 0 0 0-14.67.04l-4.3-16A59.78 59.78 0 0 1 64.02 4.5z" fill="#7ba9d0" transform="rotate(240 64 64)"/><path d="M64 1.5a62.8 62.8 0 0 0-12.4 1.23l-.38-1.45a64.56 64.56 0 0 1 25.57 0l-.4 1.45A62.78 62.78 0 0 0 64 1.5zm0 3a59.78 59.78 0 0 1 11.62 1.14L71.34 21.6a43.43 43.43 0 0 0-14.67.04l-4.3-16A59.78 59.78 0 0 1 64.02 4.5z" fill="#679cc9" transform="rotate(270 64 64)"/><path d="M64 1.5a62.8 62.8 0 0 0-12.4 1.23l-.38-1.45a64.56 64.56 0 0 1 25.57 0l-.4 1.45A62.78 62.78 0 0 0 64 1.5zm0 3a59.78 59.78 0 0 1 11.62 1.14L71.34 21.6a43.43 43.43 0 0 0-14.67.04l-4.3-16A59.78 59.78 0 0 1 64.02 4.5z" fill="#5590c3" transform="rotate(300 64 64)"/><path d="M64 1.5a62.8 62.8 0 0 0-12.4 1.23l-.38-1.45a64.56 64.56 0 0 1 25.57 0l-.4 1.45A62.78 62.78 0 0 0 64 1.5zm0 3a59.78 59.78 0 0 1 11.62 1.14L71.34 21.6a43.43 43.43 0 0 0-14.67.04l-4.3-16A59.78 59.78 0 0 1 64.02 4.5z" fill="#4485bd" transform="rotate(330 64 64)"/><animateTransform attributeName="transform" type="rotate" values="0 64 64;30 64 64;60 64 64;90 64 64;120 64 64;150 64 64;180 64 64;210 64 64;240 64 64;270 64 64;300 64 64;330 64 64" calcMode="discrete" dur="1080ms" repeatCount="indefinite"></animateTransform></g></svg>