<?xml version="1.0" encoding="UTF-8" standalone="no"?><svg xmlns:svg="http://www.w3.org/2000/svg" xmlns="http://www.w3.org/2000/svg" xmlns:xlink="http://www.w3.org/1999/xlink" version="1.0" width="256px" height="256px" viewBox="0 0 128 128" xml:space="preserve"><rect x="0" y="0" width="100%" height="100%" fill="#FFFFFF" /><g><path d="M54 28.75A114.97 114.97 0 0 0 60 15a118.9 118.9 0 0 0 4-15 119.06 119.06 0 0 0 4 15 114.76 114.76 0 0 0 6 13.75 47.17 47.17 0 0 0-10-1.25 47.43 47.43 0 0 0-10 1.25zM81.82 32a114.97 114.97 0 0 0 13.97-5.5 118.8 118.8 0 0 0 13.42-7.77 119.1 119.1 0 0 0-7.78 13.44 114.78 114.78 0 0 0-5.48 13.96 47.17 47.17 0 0 0-6.2-7.95 47.42 47.42 0 0 0-7.94-6.2zm17.43 22A115 115 0 0 0 113 60a118.9 118.9 0 0 0 15 4 119.07 119.07 0 0 0-15 4 114.77 114.77 0 0 0-13.75 6 47.17 47.17 0 0 0 1.25-10 47.43 47.43 0 0 0-1.25-10zm-3.28 27.78a115 115 0 0 0 5.48 13.97 118.93 118.93 0 0 0 7.77 13.43 118.94 118.94 0 0 0-13.43-7.77 114.72 114.72 0 0 0-13.98-5.47 47.17 47.17 0 0 0 7.95-6.18 47.43 47.43 0 0 0 6.2-7.96zM74 99.25A115 115 0 0 0 68 113a118.9 118.9 0 0 0-4 15 119.07 119.07 0 0 0-4-15 114.77 114.77 0 0 0-6-13.75 47.17 47.17 0 0 0 10 1.25 47.43 47.43 0 0 0 10-1.25zm-27.83-3.33a114.94 114.94 0 0 0-13.96 5.5 118.74 118.74 0 0 0-13.42 7.76 119.05 119.05 0 0 0 7.78-13.43 114.77 114.77 0 0 0 5.48-13.97 47.17 47.17 0 0 0 6.2 7.96 47.43 47.43 0 0 0 7.95 6.2zM28.75 74A114.97 114.97 0 0 0 15 68a118.9 118.9 0 0 0-15-4 119.06 119.06 0 0 0 15-4 114.76 114.76 0 0 0 13.75-6 47.17 47.17 0 0 0-1.25 10 47.43 47.43 0 0 0 1.25 10zm3.28-27.87a114.97 114.97 0 0 0-5.48-13.96 118.9 118.9 0 0 0-7.77-13.44A119.06 119.06 0 0 0 32.2 26.5 114.76 114.76 0 0 0 46.18 32a47.17 47.17 0 0 0-7.95 6.18 47.43 47.43 0 0 0-6.2 7.95z" fill="#337ab7"/><animateTransform attributeName="transform" type="rotate" from="0 64 64" to="45 64 64" dur="810ms" repeatCount="indefinite"></animateTransform></g></svg>